<svg width="34" height="38" viewBox="0 0 34 38" fill="none" xmlns="http://www.w3.org/2000/svg">
<path d="M12.6938 34.2335C13.8769 35.2777 15.4309 35.9113 17.1329 35.9113C18.8349 35.9113 20.389 35.2777 21.572 34.2335M27.1996 12.4223C27.1996 9.75244 26.139 7.19193 24.2512 5.30406C22.3633 3.41619 19.8028 2.35559 17.1329 2.35559C14.4631 2.35559 11.9026 3.41619 10.0147 5.30406C8.12681 7.19193 7.06621 9.75244 7.06621 12.4223C7.06621 17.607 5.75833 21.1568 4.2973 23.5048C3.06491 25.4853 2.44871 26.4756 2.4713 26.7518C2.49632 27.0577 2.56112 27.1744 2.80762 27.3572C3.03023 27.5224 4.03377 27.5224 6.04084 27.5224H28.225C30.2321 27.5224 31.2356 27.5224 31.4582 27.3572C31.7047 27.1744 31.7695 27.0577 31.7945 26.7518C31.8171 26.4756 31.2009 25.4853 29.9685 23.5048C28.5075 21.1568 27.1996 17.607 27.1996 12.4223Z" stroke="#77A9FF" stroke-width="3.35557" stroke-linecap="round" stroke-linejoin="round"/>
</svg>
