<svg width="1024" height="311" viewBox="0 0 1024 311" fill="none" xmlns="http://www.w3.org/2000/svg">
<g clip-path="url(#clip0_587_516)">
<path d="M491.111 32.0834V309.902H455.209V3.14941L491.111 32.0834Z" fill="#282828"/>
<path d="M997.155 120.909V34.1397L958.69 3.14941V120.909H943.97V153.123H958.69V310.669H997.155V153.123H1024V120.909H997.155Z" fill="#282828"/>
<path d="M622.481 280.43C587.248 282.111 557.221 254.825 555.54 219.592C553.875 184.375 581.177 154.348 616.378 152.683C650.714 151.051 680.088 176.884 683.124 210.812L711.976 199.552C703.637 153.874 662.594 120.289 614.958 122.558C563.03 125.038 522.95 169.116 525.431 221.044C527.911 272.956 571.99 313.036 623.901 310.572C663.573 308.679 696.326 282.503 708.451 247.106L660.065 265.906C647.613 273.282 640.09 277.721 622.481 280.446V280.43Z" fill="#282828"/>
<path d="M697.525 169.222L591.344 210.642L603.508 241.824L709.689 200.404L697.525 169.222Z" fill="#282828"/>
<path d="M832.771 280.43C797.554 282.111 767.527 254.825 765.862 219.592C764.181 184.375 791.467 154.347 826.7 152.683C860.253 151.083 889.121 175.791 893.169 208.641L921.874 197.446C912.703 152.862 872.182 120.338 825.264 122.557C773.353 125.038 733.273 169.116 735.737 221.044C738.217 272.955 782.296 313.036 834.223 310.571C874.842 308.629 908.199 281.213 919.622 244.511L874.744 261.94C863.908 272.711 849.221 279.663 832.787 280.446L832.771 280.43Z" fill="#282828"/>
<path d="M907.815 169.239L660.241 265.813L671.569 294.852L919.142 198.278L907.815 169.239Z" fill="#282828"/>
<path d="M149.892 0L2.31733 181.764C0.783324 173.049 0 164.074 0 154.919C0 71.0214 66.6478 2.69268 149.892 0Z" fill="#CB3694"/>
<path d="M289.324 77.5489H126.213L186.627 3.14941C230.509 12.2556 267.619 39.9004 289.34 77.5489H289.324Z" fill="#F26722"/>
<path d="M255.396 121.268L187.606 185.338H107.364L97.8012 196.01L42.7727 261.826C30.3864 248.836 20.2522 233.708 12.9412 217.046L81.1719 133.002C87.2101 125.577 96.2672 121.252 105.83 121.252H255.38L255.396 121.268Z" fill="#0D9BC5"/>
<path d="M42.7891 261.842C71.005 291.462 110.84 309.919 154.984 309.919C213.733 309.919 264.829 277.248 291.119 229.073H70.4175L42.7891 261.842Z" fill="#0D9BC5"/>
<path d="M426.422 38.4319C419.649 34.858 412.322 33.0792 404.44 33.0792C381.789 33.0792 370.463 47.1137 370.463 75.1829V121.709H418.295V151.622H370.463V309.919H334.642V151.622H299.736L321.799 121.709H334.642V73.5346C334.642 51.6179 340.958 34.4174 353.573 21.9168C366.188 9.41629 382.229 3.16602 401.682 3.16602C412.028 3.16602 420.27 4.341 426.422 6.67465V38.4319Z" fill="#282828"/>
</g>
<defs>
<clipPath id="clip0_587_516">
<rect width="1024" height="310.669" fill="white"/>
</clipPath>
</defs>
</svg>
