<svg width="25" height="20" viewBox="0 0 25 20" fill="none" xmlns="http://www.w3.org/2000/svg">
<path d="M10.5617 14.3739C11.0616 14.8739 11.7074 15.1188 12.499 15.1088C13.2906 15.0988 13.8739 14.8122 14.2489 14.2489L21.2484 3.74971L10.7492 10.7492C10.1867 11.1241 9.89007 11.697 9.85924 12.4678C9.82841 13.2386 10.0626 13.8739 10.5617 14.3739ZM12.499 0C13.7281 0 14.9105 0.171654 16.0463 0.51496C17.182 0.858267 18.2494 1.37406 19.2485 2.06234L16.8737 3.56222C16.1862 3.20809 15.473 2.94269 14.7339 2.76604C13.9948 2.58938 13.2498 2.50064 12.499 2.49981C9.72842 2.49981 7.36901 3.4739 5.42083 5.42208C3.47265 7.37026 2.49897 9.72925 2.49981 12.499C2.49981 13.374 2.6198 14.2385 2.85978 15.0926C3.09976 15.9467 3.43807 16.7487 3.8747 17.4986H21.1234C21.6025 16.707 21.9516 15.8842 22.1708 15.0301C22.3899 14.176 22.4991 13.2906 22.4983 12.374C22.4983 11.6241 22.4095 10.895 22.232 10.1867C22.0545 9.47843 21.7892 8.79099 21.4358 8.12437L22.9357 5.74956C23.5607 6.72865 24.0556 7.77023 24.4206 8.87432C24.7856 9.9784 24.9781 11.1241 24.9981 12.3115C25.0181 13.499 24.8827 14.6343 24.5918 15.7175C24.301 16.8008 23.874 17.832 23.3107 18.811C23.0816 19.186 22.7691 19.4777 22.3733 19.686C21.9775 19.8943 21.5608 19.9985 21.1234 19.9985H3.8747C3.43723 19.9985 3.0206 19.8943 2.6248 19.686C2.22899 19.4777 1.91652 19.186 1.68737 18.811C1.14574 17.8736 0.72911 16.8791 0.437466 15.8275C0.145822 14.7759 0 13.6664 0 12.499C0 10.77 0.328308 9.15054 0.984924 7.64066C1.64154 6.13078 2.5373 4.80796 3.67222 3.67222C4.80713 2.53647 6.13494 1.64071 7.65566 0.984924C9.17637 0.329141 10.7908 0.000833269 12.499 0Z" fill="#8885EB"/>
</svg>
