<svg width="35" height="38" viewBox="0 0 35 38" fill="none" xmlns="http://www.w3.org/2000/svg">
<path d="M13.0296 31.2337L14.0102 33.4391C14.3017 34.0956 14.7774 34.6533 15.3796 35.0448C15.9819 35.4362 16.6848 35.6445 17.403 35.6444C18.1213 35.6445 18.8242 35.4362 19.4264 35.0448C20.0287 34.6533 20.5044 34.0956 20.7959 33.4391L21.7765 31.2337C22.1255 30.4512 22.7127 29.7988 23.4543 29.3695C24.2005 28.9391 25.0638 28.7557 25.9206 28.8457L28.3198 29.1011C29.034 29.1766 29.7548 29.0433 30.3947 28.7174C31.0347 28.3915 31.5663 27.8869 31.9252 27.2648C32.2845 26.6431 32.4557 25.9305 32.418 25.2135C32.3803 24.4964 32.1353 23.8057 31.7127 23.2251L30.2922 21.2733C29.7863 20.5731 29.5161 19.7303 29.5204 18.8666C29.5202 18.0052 29.793 17.1659 30.2996 16.4692L31.7201 14.5174C32.1427 13.9368 32.3878 13.2461 32.4255 12.529C32.4632 11.812 32.292 11.0994 31.9327 10.4777C31.5738 9.8556 31.0421 9.35102 30.4022 9.02509C29.7622 8.69916 29.0415 8.56588 28.3273 8.64142L25.9281 8.89682C25.0713 8.9868 24.208 8.80344 23.4617 8.37298C22.7187 7.94128 22.1313 7.28544 21.7839 6.49945L20.7959 4.2941C20.5044 3.63763 20.0287 3.07984 19.4264 2.68838C18.8242 2.29693 18.1213 2.08863 17.403 2.08875C16.6848 2.08863 15.9819 2.29693 15.3796 2.68838C14.7774 3.07984 14.3017 3.63763 14.0102 4.2941L13.0296 6.49945C12.6822 7.28544 12.0949 7.94128 11.3518 8.37298C10.6056 8.80344 9.74229 8.9868 8.88549 8.89682L6.4788 8.64142C5.76462 8.56588 5.04386 8.69916 4.40391 9.02509C3.76397 9.35102 3.23232 9.8556 2.87343 10.4777C2.51409 11.0994 2.34289 11.812 2.38061 12.529C2.41834 13.2461 2.66336 13.9368 3.08595 14.5174L4.50648 16.4692C5.01307 17.1659 5.28587 18.0052 5.28571 18.8666C5.28587 19.728 5.01307 20.5673 4.50648 21.264L3.08595 23.2158C2.66336 23.7963 2.41834 24.4871 2.38061 25.2041C2.34289 25.9212 2.51409 26.6338 2.87343 27.2555C3.23267 27.8773 3.76438 28.3816 4.40424 28.7075C5.04409 29.0333 5.76468 29.1668 6.4788 29.0918L8.87804 28.8364C9.73483 28.7464 10.5981 28.9297 11.3444 29.3602C12.0902 29.7907 12.6802 30.4466 13.0296 31.2337Z" stroke="#6B5CE7" stroke-width="3.35557" stroke-linecap="round" stroke-linejoin="round"/>
<path d="M17.4 23.8999C20.1799 23.8999 22.4334 21.6464 22.4334 18.8666C22.4334 16.0867 20.1799 13.8332 17.4 13.8332C14.6202 13.8332 12.3667 16.0867 12.3667 18.8666C12.3667 21.6464 14.6202 23.8999 17.4 23.8999Z" stroke="#6B5CE7" stroke-width="3.35557" stroke-linecap="round" stroke-linejoin="round"/>
</svg>
