<svg width="20" height="22" viewBox="0 0 20 22" fill="none" xmlns="http://www.w3.org/2000/svg">
<path d="M2 5.71289H3.85556H18.7" stroke="#FF4242" stroke-width="2.14103" stroke-linecap="round" stroke-linejoin="round"/>
<path d="M6.63978 5.71111V3.85556C6.63978 3.36343 6.83527 2.89146 7.18326 2.54348C7.53124 2.1955 8.00321 2 8.49533 2H12.2064C12.6986 2 13.1705 2.1955 13.5185 2.54348C13.8665 2.89146 14.062 3.36343 14.062 3.85556V5.71111M16.8453 5.71111V18.7C16.8453 19.1921 16.6498 19.6641 16.3019 20.0121C15.9539 20.3601 15.4819 20.5556 14.9898 20.5556H5.712C5.21988 20.5556 4.74791 20.3601 4.39992 20.0121C4.05194 19.6641 3.85645 19.1921 3.85645 18.7V5.71111H16.8453Z" stroke="#FF4242" stroke-width="2.14103" stroke-linecap="round" stroke-linejoin="round"/>
<path d="M8.49512 10.3501V15.9168" stroke="#FF4242" stroke-width="2.14103" stroke-linecap="round" stroke-linejoin="round"/>
<path d="M12.2061 10.3501V15.9168" stroke="#FF4242" stroke-width="2.14103" stroke-linecap="round" stroke-linejoin="round"/>
</svg>
