<svg width="28" height="38" viewBox="0 0 28 38" fill="none" xmlns="http://www.w3.org/2000/svg">
<path d="M18.7007 2.35559V4.70449C18.7007 5.64414 18.7007 6.11396 18.5178 6.47286C18.357 6.78855 18.1003 7.04522 17.7846 7.20608C17.4257 7.38894 16.9559 7.38894 16.0162 7.38894H11.3184C10.3788 7.38894 9.90897 7.38894 9.55008 7.20608C9.23438 7.04522 8.97771 6.78855 8.81686 6.47286C8.63399 6.11396 8.63399 5.64414 8.63399 4.70449V2.35559M7.29176 35.9113H20.0429C21.9222 35.9113 22.8619 35.9113 23.5797 35.5455C24.2111 35.2238 24.7244 34.7105 25.0461 34.0791C25.4118 33.3613 25.4118 32.4217 25.4118 30.5424V7.7245C25.4118 5.84521 25.4118 4.90556 25.0461 4.18776C24.7244 3.55637 24.2111 3.04304 23.5797 2.72133C22.8619 2.35559 21.9222 2.35559 20.0429 2.35559H7.29176C5.41247 2.35559 4.47282 2.35559 3.75502 2.72133C3.12363 3.04304 2.6103 3.55637 2.28859 4.18776C1.92285 4.90556 1.92285 5.84521 1.92285 7.7245V30.5424C1.92285 32.4217 1.92285 33.3613 2.28859 34.0791C2.6103 34.7105 3.12363 35.2238 3.75502 35.5455C4.47282 35.9113 5.41247 35.9113 7.29176 35.9113Z" stroke="#AD78DF" stroke-width="3.35557" stroke-linecap="round" stroke-linejoin="round"/>
</svg>
