<svg width="31" height="31" viewBox="0 0 31 31" fill="none" xmlns="http://www.w3.org/2000/svg">
<path d="M14.825 6.05H15.4114C19.5252 6.05 21.5821 6.05 22.3629 6.78884C23.0378 7.4275 23.3369 8.36833 23.1547 9.27948C22.9439 10.3336 21.2646 11.5214 17.9061 13.8969L12.4189 17.7781C9.06037 20.1536 7.38108 21.3414 7.17028 22.3955C6.98806 23.3067 7.28716 24.2475 7.96209 24.8862C8.74289 25.625 10.7998 25.625 14.9136 25.625H16.175M10.1 6.05C10.1 8.28675 8.28675 10.1 6.05 10.1C3.81325 10.1 2 8.28675 2 6.05C2 3.81325 3.81325 2 6.05 2C8.28675 2 10.1 3.81325 10.1 6.05ZM29 24.95C29 27.1868 27.1868 29 24.95 29C22.7132 29 20.9 27.1868 20.9 24.95C20.9 22.7132 22.7132 20.9 24.95 20.9C27.1868 20.9 29 22.7132 29 24.95Z" stroke="#8885EB" stroke-width="2.7" stroke-linecap="round" stroke-linejoin="round"/>
</svg>
