<svg width="37" height="37" viewBox="0 0 37 37" fill="none" xmlns="http://www.w3.org/2000/svg">
<path d="M2 18.125C2 20.2426 2.41709 22.3394 3.22744 24.2958C4.0378 26.2521 5.22556 28.0298 6.7229 29.5271C8.22025 31.0244 9.99785 32.2122 11.9542 33.0226C13.9106 33.8329 16.0074 34.25 18.125 34.25C20.2426 34.25 22.3394 33.8329 24.2958 33.0226C26.2521 32.2122 28.0298 31.0244 29.5271 29.5271C31.0244 28.0298 32.2122 26.2521 33.0226 24.2958C33.8329 22.3394 34.25 20.2426 34.25 18.125C34.25 16.0074 33.8329 13.9106 33.0226 11.9542C32.2122 9.99785 31.0244 8.22025 29.5271 6.7229C28.0298 5.22556 26.2521 4.0378 24.2958 3.22744C22.3394 2.41709 20.2426 2 18.125 2C16.0074 2 13.9106 2.41709 11.9542 3.22744C9.99785 4.0378 8.22025 5.22556 6.7229 6.7229C5.22556 8.22025 4.0378 9.99785 3.22744 11.9542C2.41709 13.9106 2 16.0074 2 18.125Z" stroke="#1AB651" stroke-width="3.58333" stroke-linecap="round" stroke-linejoin="round"/>
<path d="M14.5415 18.1248C14.5415 19.0752 14.919 19.9866 15.591 20.6586C16.263 21.3306 17.1745 21.7082 18.1248 21.7082M14.5415 18.1248C14.5415 17.1745 14.919 16.263 15.591 15.591C16.263 14.919 17.1745 14.5415 18.1248 14.5415C19.0752 14.5415 19.9866 14.919 20.6586 15.591C21.3306 16.263 21.7082 17.1745 21.7082 18.1248M14.5415 18.1248L2.44775 14.5415M18.1248 21.7082C19.0752 21.7082 19.9866 21.3306 20.6586 20.6586C21.3306 19.9866 21.7082 19.0752 21.7082 18.1248M18.1248 21.7082V34.2498M21.7082 18.1248L33.8019 14.5415" stroke="#1AB651" stroke-width="3.58333" stroke-linecap="round" stroke-linejoin="round"/>
</svg>
