<svg width="38" height="38" viewBox="0 0 38 38" fill="none" xmlns="http://www.w3.org/2000/svg">
<path d="M5.97768 35.605C6.98867 35.9113 8.35421 35.9113 10.6754 35.9113H28.1244C30.4456 35.9113 31.8112 35.9113 32.8221 35.605M5.97768 35.605C5.7609 35.5393 5.56043 35.4595 5.37033 35.3627C4.42324 34.8801 3.65324 34.1101 3.17067 33.163C2.62207 32.0863 2.62207 30.6769 2.62207 27.8579V10.409C2.62207 7.59001 2.62207 6.18054 3.17067 5.10385C3.65324 4.15676 4.42324 3.38676 5.37033 2.90419C6.44702 2.35559 7.85649 2.35559 10.6754 2.35559H28.1244C30.9433 2.35559 32.3528 2.35559 33.4295 2.90419C34.3766 3.38676 35.1466 4.15676 35.6292 5.10385C36.1778 6.18054 36.1778 7.59001 36.1778 10.409V27.8579C36.1778 30.6769 36.1778 32.0863 35.6292 33.163C35.1466 34.1101 34.3766 34.8801 33.4295 35.3627C33.2394 35.4595 33.0389 35.5393 32.8221 35.605M5.97768 35.605C5.97823 34.2471 5.98637 33.5286 6.10659 32.9242C6.63615 30.262 8.71725 28.1809 11.3795 27.6513C12.0278 27.5224 12.8074 27.5224 14.3666 27.5224H24.4333C25.9924 27.5224 26.772 27.5224 27.4203 27.6513C30.0826 28.1809 32.1637 30.262 32.6932 32.9242C32.8135 33.5286 32.8216 34.2471 32.8221 35.605M26.1111 14.939C26.1111 18.6454 23.1064 21.6501 19.3999 21.6501C15.6935 21.6501 12.6888 18.6454 12.6888 14.939C12.6888 11.2325 15.6935 8.22784 19.3999 8.22784C23.1064 8.22784 26.1111 11.2325 26.1111 14.939Z" stroke="#FFA96A" stroke-width="3.35557" stroke-linecap="round" stroke-linejoin="round"/>
</svg>
