<svg width="22" height="22" viewBox="0 0 22 22" fill="none" xmlns="http://www.w3.org/2000/svg">
<g clip-path="url(#clip0_902_20620)">
<path d="M10.427 4.1444H6.72955C5.25043 4.1444 4.51088 4.1444 3.94593 4.43226C3.44899 4.68546 3.04496 5.08949 2.79176 5.58643C2.50391 6.15138 2.50391 6.89093 2.50391 8.37005V15.7649C2.50391 17.244 2.50391 17.9836 2.79176 18.5485C3.04496 19.0455 3.44899 19.4495 3.94593 19.7027C4.51088 19.9906 5.25043 19.9906 6.72955 19.9906H14.1244C15.6035 19.9906 16.3431 19.9906 16.908 19.7027C17.405 19.4495 17.809 19.0455 18.0622 18.5485C18.3501 17.9836 18.3501 17.244 18.3501 15.7649V12.0675M7.78593 14.7085H9.26011C9.69075 14.7085 9.90608 14.7085 10.1087 14.6599C10.2884 14.6167 10.4601 14.5456 10.6176 14.4491C10.7953 14.3402 10.9476 14.1879 11.2521 13.8834L19.6706 5.46492C20.3999 4.73562 20.3999 3.55319 19.6706 2.82389C18.9413 2.09459 17.7588 2.09459 17.0295 2.82389L8.61104 11.2424C8.30653 11.5469 8.15427 11.6991 8.04539 11.8768C7.94885 12.0344 7.87771 12.2061 7.83458 12.3858C7.78593 12.5884 7.78593 12.8037 7.78593 13.2344V14.7085Z" stroke="white" stroke-width="2.11282" stroke-linecap="round" stroke-linejoin="round"/>
</g>
<defs>
<clipPath id="clip0_902_20620">
<rect width="21.1282" height="21.1282" fill="white" transform="translate(0.743164 0.623047)"/>
</clipPath>
</defs>
</svg>
