<svg width="38" height="34" viewBox="0 0 38 34" fill="none" xmlns="http://www.w3.org/2000/svg">
<path d="M35.9112 31.9666V28.611C35.9112 25.4839 33.7724 22.8563 30.8778 22.1113M25.0056 2.25431C27.465 3.24989 29.2 5.66114 29.2 8.47762C29.2 11.2941 27.465 13.7053 25.0056 14.7009M27.5222 31.9666C27.5222 28.8396 27.5222 27.2761 27.0114 26.0428C26.3302 24.3984 25.0238 23.0919 23.3793 22.4107C22.146 21.8999 20.5825 21.8999 17.4555 21.8999H12.4222C9.29518 21.8999 7.73168 21.8999 6.49836 22.4107C4.85395 23.0919 3.54746 24.3984 2.86632 26.0428C2.35547 27.2761 2.35547 28.8396 2.35547 31.9666M21.65 8.47762C21.65 12.1841 18.6453 15.1888 14.9389 15.1888C11.2324 15.1888 8.22771 12.1841 8.22771 8.47762C8.22771 4.77116 11.2324 1.76648 14.9389 1.76648C18.6453 1.76648 21.65 4.77116 21.65 8.47762Z" stroke="#FDCB6E" stroke-width="3.35557" stroke-linecap="round" stroke-linejoin="round"/>
</svg>
