<svg width="38" height="38" viewBox="0 0 38 38" fill="none" xmlns="http://www.w3.org/2000/svg">
<path d="M5.97764 29.2001V28.8646C5.97764 26.0456 5.97764 24.6362 6.52624 23.5595C7.00881 22.6124 7.77881 21.8424 8.7259 21.3598C9.80259 20.8112 11.2121 20.8112 14.031 20.8112H24.7688C27.5878 20.8112 28.9972 20.8112 30.0739 21.3598C31.021 21.8424 31.791 22.6124 32.2736 23.5595C32.8222 24.6362 32.8222 26.0456 32.8222 28.8646V29.2001M5.97764 29.2001C4.12441 29.2001 2.62207 30.7025 2.62207 32.5557C2.62207 34.4089 4.12441 35.9113 5.97764 35.9113C7.83087 35.9113 9.33321 34.4089 9.33321 32.5557C9.33321 30.7025 7.83087 29.2001 5.97764 29.2001ZM32.8222 29.2001C30.969 29.2001 29.4666 30.7025 29.4666 32.5557C29.4666 34.4089 30.969 35.9113 32.8222 35.9113C34.6754 35.9113 36.1778 34.4089 36.1778 32.5557C36.1778 30.7025 34.6754 29.2001 32.8222 29.2001ZM19.3999 29.2001C17.5467 29.2001 16.0443 30.7025 16.0443 32.5557C16.0443 34.4089 17.5467 35.9113 19.3999 35.9113C21.2531 35.9113 22.7555 34.4089 22.7555 32.5557C22.7555 30.7025 21.2531 29.2001 19.3999 29.2001ZM19.3999 29.2001V12.4223M9.33321 12.4223H29.4666C31.0301 12.4223 31.8119 12.4223 32.4285 12.1669C33.2507 11.8263 33.904 11.1731 34.2445 10.3508C34.5 9.73419 34.5 8.95244 34.5 7.38894C34.5 5.82544 34.5 5.0437 34.2445 4.42704C33.904 3.60483 33.2507 2.95159 32.4285 2.61102C31.8119 2.35559 31.0301 2.35559 29.4666 2.35559H9.33321C7.76971 2.35559 6.98796 2.35559 6.3713 2.61102C5.54909 2.95159 4.89585 3.60483 4.55528 4.42704C4.29985 5.0437 4.29985 5.82544 4.29985 7.38894C4.29985 8.95244 4.29985 9.73419 4.55528 10.3508C4.89585 11.1731 5.54909 11.8263 6.3713 12.1669C6.98796 12.4223 7.76971 12.4223 9.33321 12.4223Z" stroke="#FF7676" stroke-width="3.35557" stroke-linecap="round" stroke-linejoin="round"/>
</svg>
