<svg width="26" height="27" viewBox="0 0 26 27" fill="none" xmlns="http://www.w3.org/2000/svg">
<path d="M2 25.1579H15.8947M3.15789 10.1053H14.7368M14.7368 25.1579V4.31579C14.7368 3.7016 14.4929 3.11257 14.0586 2.67828C13.6243 2.24398 13.0352 2 12.4211 2H5.47368C4.8595 2 4.27047 2.24398 3.83617 2.67828C3.40188 3.11257 3.15789 3.7016 3.15789 4.31579V25.1579M14.7368 14.7368H17.0526C17.6668 14.7368 18.2558 14.9808 18.6901 15.4151C19.1244 15.8494 19.3684 16.4384 19.3684 17.0526V19.3684C19.3684 19.9826 19.6124 20.5716 20.0467 21.0059C20.481 21.4402 21.07 21.6842 21.6842 21.6842C22.2984 21.6842 22.8874 21.4402 23.3217 21.0059C23.756 20.5716 24 19.9826 24 19.3684V11.0663C24.0002 10.7607 23.94 10.4581 23.8228 10.1759C23.7055 9.89374 23.5336 9.63754 23.3168 9.42211L19.3684 5.47368" stroke="#8885EB" stroke-width="2.31579" stroke-linecap="round" stroke-linejoin="round"/>
</svg>
