<svg width="38" height="38" viewBox="0 0 38 38" fill="none" xmlns="http://www.w3.org/2000/svg">
<path d="M32.0893 18.8666C32.0893 26.2795 26.0799 32.2889 18.667 32.2889M32.0893 18.8666C32.0893 11.4537 26.0799 5.44431 18.667 5.44431M32.0893 18.8666H35.4448M18.667 32.2889C11.2541 32.2889 5.24473 26.2795 5.24473 18.8666M18.667 32.2889V35.6444M5.24473 18.8666C5.24473 11.4537 11.2541 5.44431 18.667 5.44431M5.24473 18.8666H1.88916M18.667 5.44431V2.08875M23.7004 18.8666C23.7004 21.6464 21.4468 23.8999 18.667 23.8999C15.8872 23.8999 13.6337 21.6464 13.6337 18.8666C13.6337 16.0867 15.8872 13.8332 18.667 13.8332C21.4468 13.8332 23.7004 16.0867 23.7004 18.8666Z" stroke="#FFB469" stroke-width="3.35557" stroke-linecap="round" stroke-linejoin="round"/>
</svg>
