<svg width="38" height="34" viewBox="0 0 38 34" fill="none" xmlns="http://www.w3.org/2000/svg">
<path d="M19.1333 32.2334L18.9654 31.9816C17.8 30.2334 17.2173 29.3594 16.4473 28.7266C15.7658 28.1664 14.9804 27.7461 14.1362 27.4897C13.1826 27.2001 12.1321 27.2001 10.031 27.2001H7.72438C5.84508 27.2001 4.90544 27.2001 4.18764 26.8344C3.55625 26.5126 3.04291 25.9993 2.7212 25.3679C2.35547 24.6501 2.35547 23.7105 2.35547 21.8312V7.40223C2.35547 5.52294 2.35547 4.58329 2.7212 3.8655C3.04291 3.23411 3.55625 2.72077 4.18764 2.39906C4.90544 2.03333 5.84508 2.03333 7.72438 2.03333H8.39549C12.1541 2.03333 14.0334 2.03333 15.469 2.7648C16.7317 3.40821 17.7584 4.43489 18.4018 5.69767C19.1333 7.13326 19.1333 9.01256 19.1333 12.7711M19.1333 32.2334V12.7711M19.1333 32.2334L19.3012 31.9816C20.4666 30.2334 21.0494 29.3594 21.8193 28.7266C22.5009 28.1664 23.2862 27.7461 24.1304 27.4897C25.084 27.2001 26.1345 27.2001 28.2356 27.2001H30.5422C32.4215 27.2001 33.3612 27.2001 34.079 26.8344C34.7104 26.5126 35.2237 25.9993 35.5454 25.3679C35.9112 24.6501 35.9112 23.7105 35.9112 21.8312V7.40223C35.9112 5.52294 35.9112 4.58329 35.5454 3.8655C35.2237 3.23411 34.7104 2.72077 34.079 2.39906C33.3612 2.03333 32.4215 2.03333 30.5422 2.03333H29.8711C26.1125 2.03333 24.2332 2.03333 22.7977 2.7648C21.5349 3.40821 20.5082 4.43489 19.8648 5.69767C19.1333 7.13326 19.1333 9.01256 19.1333 12.7711" stroke="#0B84E3" stroke-width="3.35557" stroke-linecap="round" stroke-linejoin="round"/>
</svg>
