<svg width="38" height="37" viewBox="0 0 38 37" fill="none" xmlns="http://www.w3.org/2000/svg">
<path d="M8.6003 9.06673L16.1503 16.6168M8.6003 9.06673H3.56694L1.88916 4.03338L3.56694 2.35559L8.6003 4.03338V9.06673ZM30.846 3.59885L26.4374 8.00742C25.773 8.67185 25.4408 9.00407 25.3163 9.38716C25.2068 9.72413 25.2068 10.0871 25.3163 10.4241C25.4408 10.8072 25.773 11.1394 26.4374 11.8038L26.8355 12.2019C27.4999 12.8663 27.8322 13.1985 28.2152 13.323C28.5522 13.4325 28.9152 13.4325 29.2522 13.323C29.6353 13.1985 29.9675 12.8663 30.6319 12.2019L34.7558 8.07804C35.1999 9.15881 35.4448 10.3425 35.4448 11.5834C35.4448 16.6798 31.3134 20.8112 26.217 20.8112C25.6026 20.8112 25.0022 20.7512 24.4214 20.6366C23.6058 20.4758 23.1979 20.3953 22.9507 20.42C22.6879 20.4462 22.5583 20.4856 22.3254 20.6102C22.1064 20.7274 21.8866 20.9472 21.4471 21.3866L9.43919 33.3946C8.04927 34.7845 5.79576 34.7845 4.40584 33.3946C3.01592 32.0047 3.01592 29.7511 4.40584 28.3612L16.4138 16.3533C16.8533 15.9138 17.073 15.6941 17.1902 15.475C17.3149 15.2421 17.3543 15.1126 17.3805 14.8497C17.4051 14.6025 17.3247 14.1947 17.1638 13.379C17.0493 12.7982 16.9892 12.1978 16.9892 11.5834C16.9892 6.48702 21.1207 2.35559 26.217 2.35559C27.904 2.35559 29.4853 2.8083 30.846 3.59885ZM18.6671 24.1667L27.8948 33.3944C29.2847 34.7843 31.5382 34.7843 32.9281 33.3944C34.3181 32.0045 34.3181 29.751 32.9281 28.3611L25.3367 20.7698C24.7993 20.7189 24.2753 20.622 23.7688 20.4829C23.116 20.3038 22.4 20.4338 21.9213 20.9125L18.6671 24.1667Z" stroke="#00B994" stroke-width="3.35557" stroke-linecap="round" stroke-linejoin="round"/>
</svg>
