<svg width="17" height="21" viewBox="0 0 17 21" fill="none" xmlns="http://www.w3.org/2000/svg">
<path d="M10.0432 9.74365H4.70985M6.48763 13.2992H4.70985M11.821 6.1881H4.70985M15.3765 6.01032V15.2548C15.3765 16.7482 15.3765 17.495 15.0859 18.0654C14.8302 18.5672 14.4223 18.9751 13.9205 19.2308C13.3501 19.5214 12.6033 19.5214 11.1099 19.5214H5.42096C3.92749 19.5214 3.18075 19.5214 2.61032 19.2308C2.10856 18.9751 1.70061 18.5672 1.44495 18.0654C1.1543 17.495 1.1543 16.7482 1.1543 15.2548V6.01032C1.1543 4.51685 1.1543 3.77011 1.44495 3.19968C1.70061 2.69791 2.10856 2.28996 2.61032 2.0343C3.18075 1.74365 3.92749 1.74365 5.42096 1.74365H11.1099C12.6033 1.74365 13.3501 1.74365 13.9205 2.0343C14.4223 2.28996 14.8302 2.69791 15.0859 3.19968C15.3765 3.77011 15.3765 4.51685 15.3765 6.01032Z" stroke="#67ABDF" stroke-width="2.13333" stroke-linecap="round" stroke-linejoin="round"/>
</svg>
