<svg width="32" height="29" viewBox="0 0 32 29" fill="none" xmlns="http://www.w3.org/2000/svg">
<path d="M21.6 7.6C21.6 6.29804 21.6 5.64706 21.4569 5.11296C21.0685 3.66357 19.9364 2.53147 18.487 2.14311C17.9529 2 17.302 2 16 2C14.698 2 14.0471 2 13.513 2.14311C12.0636 2.53147 10.9315 3.66357 10.5431 5.11296C10.4 5.64706 10.4 6.29804 10.4 7.6M17.12 22.3H23.98C24.372 22.3 24.5681 22.3 24.7178 22.2237C24.8495 22.1566 24.9566 22.0495 25.0237 21.9178C25.1 21.7681 25.1 21.572 25.1 21.18V17.82C25.1 17.428 25.1 17.2319 25.0237 17.0822C24.9566 16.9505 24.8495 16.8434 24.7178 16.7763C24.5681 16.7 24.372 16.7 23.98 16.7H17.12C16.728 16.7 16.5319 16.7 16.3822 16.7763C16.2505 16.8434 16.1434 16.9505 16.0763 17.0822C16 17.2319 16 17.428 16 17.82V21.18C16 21.572 16 21.7681 16.0763 21.9178C16.1434 22.0495 16.2505 22.1566 16.3822 22.2237C16.5319 22.3 16.728 22.3 17.12 22.3ZM8.72 27.2H23.28C25.6322 27.2 26.8083 27.2 27.7068 26.7422C28.497 26.3396 29.1396 25.697 29.5422 24.9068C30 24.0083 30 22.8322 30 20.48V14.32C30 11.9678 30 10.7917 29.5422 9.89324C29.1396 9.10296 28.497 8.46044 27.7068 8.05777C26.8083 7.6 25.6322 7.6 23.28 7.6H8.72C6.36778 7.6 5.19167 7.6 4.29324 8.05777C3.50296 8.46044 2.86044 9.10296 2.45777 9.89324C2 10.7917 2 11.9678 2 14.32V20.48C2 22.8322 2 24.0083 2.45777 24.9068C2.86044 25.697 3.50296 26.3396 4.29324 26.7422C5.19167 27.2 6.36778 27.2 8.72 27.2Z" stroke="#8885EB" stroke-width="2.8" stroke-linecap="round" stroke-linejoin="round"/>
</svg>
