<svg width="24" height="27" viewBox="0 0 24 27" fill="none" xmlns="http://www.w3.org/2000/svg">
<path d="M3.44531 5.88954V5.27843C3.44531 4.12587 3.44531 3.55021 3.80342 3.1921C4.16154 2.83398 4.7372 2.83398 5.88976 2.83398C7.04231 2.83398 7.61798 2.83398 7.97609 3.1921C8.3342 3.55021 8.3342 4.12587 8.3342 5.27843V5.88954M15.6675 4.66732H19.3342" stroke="#8885EB" stroke-width="1.83333" stroke-linecap="round" stroke-linejoin="round"/>
<path d="M16.8889 1H15.2597C12.9692 1 12 2.14156 12 4.25967C12 5.31811 11.5148 5.88889 10.3708 5.88889H5.88889C3.58378 5.88889 2.43244 5.88889 1.71622 6.60511C1 7.32133 1 8.47267 1 10.7778V16.8889C1 20.9222 1 22.9389 2.25278 24.1917C3.50556 25.4444 5.52222 25.4444 9.55556 25.4444H14.4444C18.4778 25.4444 20.4944 25.4444 21.7472 24.1917C23 22.9389 23 20.9222 23 16.8889V7.11111C23 4.23033 23 2.78933 22.1053 1.89467C21.2094 1 19.7697 1 16.8889 1Z" stroke="#8885EB" stroke-width="1.83333" stroke-linecap="round" stroke-linejoin="round"/>
<path d="M8.33398 16.3851C8.33398 14.5957 9.87887 12.8272 10.9618 11.8054C11.2415 11.5379 11.6136 11.3887 12.0007 11.3887C12.3877 11.3887 12.7598 11.5379 13.0395 11.8054C14.1224 12.8272 15.6673 14.5957 15.6673 16.3851C15.6642 16.8607 15.5664 17.331 15.3797 17.7685C15.193 18.206 14.9211 18.602 14.5799 18.9334C14.2386 19.2648 13.8348 19.5249 13.392 19.6986C12.9492 19.8724 12.4762 19.9563 12.0007 19.9454C9.72243 19.9454 8.33398 18.1402 8.33398 16.3851Z" stroke="#8885EB" stroke-width="1.83333" stroke-linecap="round" stroke-linejoin="round"/>
</svg>
