<svg width="34" height="33" viewBox="0 0 34 33" fill="none" xmlns="http://www.w3.org/2000/svg">
<path d="M32 14.0002V12.8257C32 9.91574 32 8.46224 31.121 7.55774C30.242 6.65474 28.829 6.65474 26 6.65474H22.8815C21.506 6.65474 21.494 6.65174 20.2565 6.03224L15.26 3.53174C13.1735 2.48774 12.1295 1.96574 11.018 2.00174C9.9065 2.03774 8.9 2.62724 6.8795 3.80624L5.039 4.88024C3.5555 5.74574 2.8145 6.17924 2.408 6.89924C2 7.61924 2 8.49524 2 10.2487V22.5742C2 24.8767 2 26.0287 2.513 26.6692C2.855 27.0967 3.3335 27.3832 3.863 27.4792C4.658 27.6217 5.633 27.0532 7.58 25.9162C8.903 25.1437 10.175 24.3412 11.7575 24.5587C13.0835 24.7417 14.315 25.5787 15.5 26.1712M11 2.00024V24.5002M21.5 6.50024V12.5002" stroke="#2D55E8" stroke-width="2.25" stroke-linecap="round" stroke-linejoin="round"/>
<path d="M25.2495 22.9998H25.263M25.2495 16.2498C28.902 16.2498 31.9995 19.2753 31.9995 22.9443C31.9995 26.6718 28.8525 29.2893 25.9455 31.0668C25.7335 31.1869 25.494 31.2501 25.2503 31.2501C25.0066 31.2501 24.767 31.1869 24.555 31.0668C21.6525 29.2713 18.4995 26.6853 18.4995 22.9443C18.4995 19.2738 21.597 16.2498 25.2495 16.2498Z" stroke="#2D55E8" stroke-width="2.25" stroke-linecap="round" stroke-linejoin="round"/>
</svg>
