<svg width="33" height="27" viewBox="0 0 33 27" fill="none" xmlns="http://www.w3.org/2000/svg">
<path d="M6.35 15.05H10.7M2 9.25L4.9 10.7L6.74243 5.1727C7.12273 4.03181 7.31288 3.46137 7.66557 3.03962C7.97702 2.66719 8.37698 2.37892 8.82878 2.20122C9.34042 2 9.94172 2 11.1443 2H21.8557C23.0583 2 23.6596 2 24.1712 2.20122C24.623 2.37892 25.023 2.66719 25.3344 3.03962C25.6871 3.46137 25.8773 4.03181 26.2576 5.1727L28.1 10.7L31 9.25M22.3 15.05H26.65M8.96 10.7H24.04C26.4762 10.7 27.6943 10.7 28.6249 11.1741C29.4434 11.5912 30.1088 12.2566 30.5259 13.0751C31 14.0057 31 15.2238 31 17.66V21.575C31 22.2488 31 22.5856 30.9443 22.8658C30.7154 24.0162 29.8162 24.9154 28.6658 25.1443C28.3856 25.2 28.0488 25.2 27.375 25.2H26.65C25.0484 25.2 23.75 23.9016 23.75 22.3C23.75 21.8996 23.4254 21.575 23.025 21.575H9.975C9.57459 21.575 9.25 21.8996 9.25 22.3C9.25 23.9016 7.95163 25.2 6.35 25.2H5.625C4.95125 25.2 4.61437 25.2 4.33424 25.1443C3.18384 24.9154 2.28455 24.0162 2.05572 22.8658C2 22.5856 2 22.2488 2 21.575V17.66C2 15.2238 2 14.0057 2.47412 13.0751C2.89117 12.2566 3.55664 11.5912 4.37514 11.1741C5.30566 10.7 6.52377 10.7 8.96 10.7Z" stroke="#FD9A27" stroke-width="2.9" stroke-linecap="round" stroke-linejoin="round"/>
</svg>
