<svg width="59" height="24" viewBox="0 0 59 24" fill="none" xmlns="http://www.w3.org/2000/svg">
<path d="M3.72788 17L0.287766 7.8438H1.47807L4.36882 15.8359L7.28572 7.8438H8.44987L5.00975 17H3.72788ZM9.77026 17V10.3552H10.869V17H9.77026ZM10.3196 8.9687C10.1016 8.9687 9.91851 8.89894 9.77026 8.75942C9.63074 8.61117 9.56098 8.42805 9.56098 8.21004C9.56098 7.99204 9.63074 7.81763 9.77026 7.68683C9.91851 7.54731 10.1016 7.47755 10.3196 7.47755C10.5289 7.47755 10.7077 7.54731 10.8559 7.68683C11.0042 7.81763 11.0783 7.99204 11.0783 8.21004C11.0783 8.42805 11.0042 8.61117 10.8559 8.75942C10.7077 8.89894 10.5289 8.9687 10.3196 8.9687ZM15.6987 17.157C15.0796 17.157 14.5302 17.0131 14.0506 16.7253C13.5797 16.4375 13.2091 16.0321 12.9388 15.5088C12.6684 14.9856 12.5333 14.3752 12.5333 13.6776C12.5333 12.98 12.6641 12.3739 12.9257 11.8594C13.196 11.3362 13.571 10.9307 14.0506 10.643C14.5389 10.3465 15.097 10.1982 15.7249 10.1982C16.3702 10.1982 16.9152 10.3465 17.3599 10.643C17.8133 10.9307 18.1578 11.3101 18.3932 11.781C18.6374 12.2519 18.7595 12.7663 18.7595 13.3244C18.7595 13.4116 18.7595 13.5032 18.7595 13.5991C18.7595 13.695 18.7551 13.804 18.7464 13.9261H13.3573V13.0759H17.6738C17.6477 12.4568 17.4471 11.9772 17.0721 11.6371C16.7059 11.297 16.2481 11.1269 15.6987 11.1269C15.3237 11.1269 14.9749 11.2142 14.6523 11.3886C14.3384 11.563 14.0855 11.8158 13.8936 12.1472C13.7018 12.4699 13.6059 12.8797 13.6059 13.3768V13.743C13.6059 14.2924 13.7018 14.7545 13.8936 15.1295C14.0942 15.4958 14.3514 15.7705 14.6654 15.9536C14.988 16.1367 15.3325 16.2283 15.6987 16.2283C16.1609 16.2283 16.5402 16.128 16.8367 15.9274C17.1332 15.7269 17.3512 15.4478 17.4907 15.0903H18.5764C18.463 15.4914 18.2755 15.8489 18.0139 16.1629C17.7523 16.4681 17.4253 16.7122 17.0329 16.8954C16.6492 17.0698 16.2045 17.157 15.6987 17.157ZM21.3341 17L19.3851 10.3552H20.4838L21.9881 15.9013H21.8311L23.4661 10.3552H24.7088L26.3569 15.8882L26.1738 15.9013L27.678 10.3552H28.7898L26.8409 17H25.716L24.0024 11.2054H24.1725L22.459 17H21.3341Z" fill="#0D6EFC"/>
<path d="M37.4201 12.7132C37.2839 12.4975 37.2158 12.3897 37.1777 12.2234C37.1491 12.0985 37.1491 11.9015 37.1777 11.7766C37.2158 11.6103 37.2839 11.5025 37.4201 11.2868C38.5455 9.50484 41.8954 5 47.0004 5C52.1054 5 55.4553 9.50484 56.5807 11.2868C56.7169 11.5025 56.785 11.6103 56.8231 11.7766C56.8517 11.9015 56.8517 12.0985 56.8231 12.2234C56.785 12.3897 56.7169 12.4975 56.5807 12.7132C55.4553 14.4952 52.1054 19 47.0004 19C41.8954 19 38.5455 14.4952 37.4201 12.7132Z" stroke="#0D6EFD" stroke-width="2" stroke-linecap="round" stroke-linejoin="round"/>
<path d="M47.0004 15C48.6573 15 50.0004 13.6569 50.0004 12C50.0004 10.3431 48.6573 9 47.0004 9C45.3435 9 44.0004 10.3431 44.0004 12C44.0004 13.6569 45.3435 15 47.0004 15Z" stroke="#0D6EFD" stroke-width="2" stroke-linecap="round" stroke-linejoin="round"/>
</svg>
